<svg width="506" height="102" viewBox="0 0 506 102" xmlns="http://www.w3.org/2000/svg">
<path d="M469.463 67.3251V21.365H483.928V67.3251H469.463ZM483.928 42.0754L477.877 37.347C479.075 31.9882 481.092 27.8272 483.928 24.864C486.765 21.9009 490.704 20.4193 495.747 20.4193C497.953 20.4193 499.875 20.7661 501.514 21.4596C503.216 22.09 504.697 23.0988 505.958 24.4858L497.354 35.3611C496.724 34.6676 495.936 34.1317 494.99 33.7534C494.045 33.3752 492.973 33.186 491.776 33.186C489.381 33.186 487.458 33.9426 486.008 35.4557C484.622 36.9057 483.928 39.1123 483.928 42.0754Z" />
<path d="M437.111 68.3653C432.384 68.3653 428.098 67.325 424.253 65.2445C420.471 63.101 417.477 60.2009 415.271 56.5443C413.065 52.8876 411.962 48.7897 411.962 44.2504C411.962 39.7111 413.065 35.6447 415.271 32.0511C417.477 28.4575 420.471 25.6205 424.253 23.54C428.035 21.3965 432.321 20.3247 437.111 20.3247C441.902 20.3247 446.188 21.3649 449.97 23.4454C453.751 25.5259 456.745 28.3945 458.952 32.0511C461.158 35.6447 462.261 39.7111 462.261 44.2504C462.261 48.7897 461.158 52.8876 458.952 56.5443C456.745 60.2009 453.751 63.101 449.97 65.2445C446.188 67.325 441.902 68.3653 437.111 68.3653ZM437.111 55.2203C439.191 55.2203 441.019 54.779 442.595 53.8964C444.171 52.9507 445.368 51.6582 446.188 50.0191C447.07 48.3168 447.511 46.394 447.511 44.2504C447.511 42.1069 447.07 40.247 446.188 38.6709C445.305 37.0317 444.076 35.7708 442.5 34.8882C440.988 33.9425 439.191 33.4697 437.111 33.4697C435.094 33.4697 433.298 33.9425 431.722 34.8882C430.146 35.7708 428.917 37.0317 428.035 38.6709C427.152 40.3101 426.711 42.2014 426.711 44.345C426.711 46.4255 427.152 48.3168 428.035 50.0191C428.917 51.6582 430.146 52.9507 431.722 53.8964C433.298 54.779 435.094 55.2203 437.111 55.2203Z" />
<path d="M380.419 67.5145L361.51 21.3652H377.11L389.117 57.9631H383.35L395.641 21.3652H411.242L391.576 67.5145H380.419ZM368.601 86.7118L382.405 56.9228L391.576 67.5145L383.445 86.7118H368.601Z" />
<path d="M329.199 68.2708C324.976 68.2708 321.194 67.2305 317.854 65.15C314.576 63.0695 311.96 60.2325 310.006 56.6389C308.115 53.0453 307.17 48.9474 307.17 44.3451C307.17 39.7427 308.115 35.6448 310.006 32.0512C311.96 28.4576 314.576 25.6206 317.854 23.5401C321.194 21.4596 324.976 20.4193 329.199 20.4193C332.288 20.4193 335.061 21.0183 337.52 22.2161C340.041 23.414 342.089 25.0847 343.665 27.2282C345.241 29.3087 346.123 31.7045 346.312 34.4154V54.2747C346.123 56.9857 345.241 59.4129 343.665 61.5564C342.152 63.6369 340.135 65.2761 337.614 66.474C335.093 67.6719 332.288 68.2708 329.199 68.2708ZM332.13 55.2204C335.219 55.2204 337.709 54.2117 339.6 52.1942C341.491 50.1137 342.436 47.4973 342.436 44.3451C342.436 42.2015 341.995 40.3102 341.112 38.671C340.293 37.0318 339.095 35.7709 337.52 34.8883C336.007 33.9426 334.242 33.4697 332.225 33.4697C330.208 33.4697 328.411 33.9426 326.836 34.8883C325.323 35.7709 324.094 37.0318 323.148 38.671C322.266 40.3102 321.825 42.2015 321.825 44.3451C321.825 46.4256 322.266 48.2854 323.148 49.9246C324.031 51.5638 325.26 52.8562 326.836 53.8019C328.411 54.7475 330.176 55.2204 332.13 55.2204ZM341.869 67.3251V54.9367L344.043 43.7777L341.869 32.6186V21.365H356.051V67.3251H341.869Z" />
<path d="M230.171 67.3251V7.02861C230.171 3.4561 233.066 0.559998 236.638 0.559998C239.207 0.559998 241.599 1.86731 242.987 4.02948L267.044 41.508H261.655L285.601 4.0683C286.999 1.88246 289.414 0.559998 292.008 0.559998C295.609 0.559998 298.528 3.47975 298.528 7.08144V67.3251H283.684V25.6205L286.332 26.2825L269.219 52.9507H259.386L242.367 26.2825L244.92 25.6205V67.3251H230.171Z" />
<path d="M178.287 67.3251V21.365H192.752V67.3251H178.287ZM192.752 42.0754L186.701 37.347C187.899 31.9882 189.916 27.8272 192.752 24.864C195.589 21.9009 199.528 20.4193 204.571 20.4193C206.777 20.4193 208.699 20.7661 210.338 21.4596C212.04 22.09 213.521 23.0988 214.782 24.4858L206.178 35.3611C205.548 34.6676 204.76 34.1317 203.814 33.7534C202.869 33.3752 201.797 33.186 200.6 33.186C198.205 33.186 196.282 33.9426 194.832 35.4557C193.446 36.9057 192.752 39.1123 192.752 42.0754Z" />
<path d="M141.252 68.2708C137.029 68.2708 133.247 67.2305 129.906 65.15C126.629 63.0695 124.013 60.2325 122.059 56.6389C120.168 53.0453 119.222 48.9474 119.222 44.3451C119.222 39.7427 120.168 35.6448 122.059 32.0512C124.013 28.4576 126.629 25.6206 129.906 23.5401C133.247 21.4596 137.029 20.4193 141.252 20.4193C144.34 20.4193 147.114 21.0183 149.572 22.2161C152.093 23.414 154.142 25.0847 155.718 27.2282C157.293 29.3087 158.176 31.7045 158.365 34.4154V54.2747C158.176 56.9857 157.293 59.4129 155.718 61.5564C154.205 63.6369 152.188 65.2761 149.667 66.474C147.145 67.6719 144.34 68.2708 141.252 68.2708ZM144.183 55.2204C147.271 55.2204 149.761 54.2117 151.652 52.1942C153.543 50.1137 154.488 47.4973 154.488 44.3451C154.488 42.2015 154.047 40.3102 153.165 38.671C152.345 37.0318 151.148 35.7709 149.572 34.8883C148.059 33.9426 146.294 33.4697 144.277 33.4697C142.26 33.4697 140.464 33.9426 138.888 34.8883C137.375 35.7709 136.146 37.0318 135.201 38.671C134.318 40.3102 133.877 42.2015 133.877 44.3451C133.877 46.4256 134.318 48.2854 135.201 49.9246C136.083 51.5638 137.312 52.8562 138.888 53.8019C140.464 54.7475 142.229 55.2204 144.183 55.2204ZM153.921 67.3251V54.9367L156.096 43.7777L153.921 32.6186V21.365H168.103V67.3251H153.921Z" />
<path d="M92.9522 68.3653C87.9727 68.3653 83.529 67.3565 79.6211 65.3391C75.7761 63.2586 72.7506 60.39 70.5445 56.7334C68.3384 53.0768 67.2354 48.9473 67.2354 44.345C67.2354 39.7427 68.3069 35.6447 70.45 32.0511C72.6561 28.3945 75.6186 25.5259 79.3374 23.4454C83.0563 21.3649 87.2479 20.3247 91.9122 20.3247C96.4504 20.3247 100.453 21.3019 103.92 23.2563C107.386 25.2107 110.097 27.9217 112.051 31.3892C114.068 34.8567 115.076 38.8285 115.076 43.3047C115.076 44.1243 115.013 45.007 114.887 45.9526C114.824 46.8353 114.667 47.8755 114.414 49.0734L74.7992 49.1679V39.2383L108.269 39.1437L102.029 43.3047C101.966 40.6568 101.556 38.4818 100.8 36.7795C100.043 35.0143 98.9087 33.6903 97.3959 32.8077C95.9462 31.862 94.1498 31.3892 92.0067 31.3892C89.7376 31.3892 87.7521 31.925 86.0503 32.9968C84.4114 34.0055 83.1193 35.4556 82.1738 37.3469C81.2914 39.2383 80.8502 41.5395 80.8502 44.2504C80.8502 46.9614 81.3229 49.294 82.2684 51.2484C83.2769 53.1398 84.6636 54.6214 86.4284 55.6931C88.2564 56.7019 90.3994 57.2062 92.8577 57.2062C95.1268 57.2062 97.1753 56.828 99.0032 56.0714C100.831 55.2518 102.438 54.054 103.825 52.4778L111.767 60.4215C109.498 63.0695 106.756 65.0554 103.541 66.3793C100.327 67.7033 96.7971 68.3653 92.9522 68.3653Z" />
<path d="M15.1585 67.3251V54.2747H26.8719C30.9059 54.2747 34.4357 53.4866 37.4612 51.9105C40.4867 50.2713 42.8189 47.9071 44.4577 44.8179C46.0965 41.7286 46.9159 38.072 46.9159 33.848C46.9159 29.6239 46.065 25.9988 44.3631 22.9726C42.7243 19.9465 40.3922 17.6138 37.3666 15.9746C34.4042 14.3354 30.9059 13.5158 26.8719 13.5158H9.85345V0.559998H27.061C32.1035 0.559998 36.7363 1.37959 40.9594 3.01877C45.2456 4.5949 48.9644 6.89606 52.116 9.92223C55.3306 12.8854 57.7888 16.4159 59.4907 20.5139C61.2555 24.5488 62.138 29.025 62.138 33.9425C62.138 38.797 61.2555 43.2732 59.4907 47.3712C57.7888 51.4691 55.3621 54.9997 52.2105 57.9628C49.059 60.9259 45.3401 63.2271 41.054 64.8663C36.8309 66.5055 32.2296 67.3251 27.2501 67.3251H15.1585ZM0.304199 54.2747V10.5986C0.304199 5.05444 4.79764 0.559998 10.3406 0.559998H15.1481V54.2747H0.304199Z" />
<path d="M15.0842 79.0504H37.3872V101.358H15.0842V79.0504Z" fill="#1E5AF2"/>
<path d="M64.151 79.0504H86.454C86.454 91.3708 76.4686 101.358 64.151 101.358V79.0504Z" fill="#FFCC2D"/>
<path d="M113.218 101.358C113.218 89.038 123.203 79.0504 135.521 79.0504V101.358H113.218Z" fill="#FF1C52"/>
</svg>
