<svg xmlns="http://www.w3.org/2000/svg" width="127" height="25" viewBox="0 0 127 25">
  <path d="M117.799 16.03V5.08696H121.402V16.03H117.799ZM121.402 10.0181L119.895 8.89225C120.193 7.61632 120.695 6.62559 121.402 5.92007C122.108 5.21455 123.089 4.86179 124.345 4.86179C124.895 4.86179 125.374 4.94435 125.782 5.10947C126.206 5.25958 126.574 5.49976 126.888 5.83L124.746 8.41941C124.589 8.25429 124.392 8.12669 124.157 8.03663C123.921 7.94656 123.655 7.90153 123.356 7.90153C122.76 7.90153 122.281 8.08166 121.92 8.44193C121.575 8.78718 121.402 9.31256 121.402 10.0181Z"/>
  <path d="M109.742 16.2777C108.564 16.2777 107.497 16.03 106.539 15.5346C105.597 15.0242 104.852 14.3337 104.302 13.4631C103.753 12.5925 103.478 11.6167 103.478 10.5359C103.478 9.45515 103.753 8.48694 104.302 7.63131C104.852 6.77568 105.597 6.10018 106.539 5.60482C107.481 5.09444 108.549 4.83925 109.742 4.83925C110.935 4.83925 112.002 5.08694 112.944 5.5823C113.886 6.07767 114.632 6.76067 115.181 7.63131C115.731 8.48694 116.005 9.45515 116.005 10.5359C116.005 11.6167 115.731 12.5925 115.181 13.4631C114.632 14.3337 113.886 15.0242 112.944 15.5346C112.002 16.03 110.935 16.2777 109.742 16.2777ZM109.742 13.1479C110.26 13.1479 110.715 13.0428 111.107 12.8326C111.5 12.6075 111.798 12.2997 112.002 11.9095C112.222 11.5042 112.332 11.0463 112.332 10.5359C112.332 10.0256 112.222 9.58274 112.002 9.20747C111.782 8.81718 111.476 8.51696 111.084 8.3068C110.707 8.08164 110.26 7.96906 109.742 7.96906C109.239 7.96906 108.792 8.08164 108.399 8.3068C108.007 8.51696 107.701 8.81718 107.481 9.20747C107.261 9.59776 107.151 10.0481 107.151 10.5585C107.151 11.0538 107.261 11.5042 107.481 11.9095C107.701 12.2997 108.007 12.6075 108.399 12.8326C108.792 13.0428 109.239 13.1479 109.742 13.1479Z"/>
  <path d="M95.622 16.0751L90.9124 5.08701H94.7978L97.7884 13.8009H96.352L99.4132 5.08701H103.299L98.4006 16.0751H95.622ZM92.6785 20.646L96.1165 13.5532L98.4006 16.0751L96.3755 20.646H92.6785Z"/>
  <path d="M82.8653 16.2552C81.8135 16.2552 80.8716 16.0075 80.0395 15.5121C79.2232 15.0168 78.5717 14.3413 78.0851 13.4856C77.6141 12.63 77.3786 11.6543 77.3786 10.5585C77.3786 9.46268 77.6141 8.48696 78.0851 7.63133C78.5717 6.7757 79.2232 6.1002 80.0395 5.60484C80.8716 5.10947 81.8135 4.86179 82.8653 4.86179C83.6345 4.86179 84.3252 5.00439 84.9375 5.2896C85.5654 5.57481 86.0756 5.97261 86.4681 6.48298C86.8605 6.97835 87.0803 7.54877 87.1274 8.19424V12.9227C87.0803 13.5682 86.8605 14.1461 86.4681 14.6565C86.0913 15.1519 85.5889 15.5421 84.961 15.8274C84.3331 16.1126 83.6345 16.2552 82.8653 16.2552ZM83.5952 13.1479C84.3645 13.1479 84.9846 12.9077 85.4555 12.4274C85.9265 11.932 86.1619 11.309 86.1619 10.5585C86.1619 10.0481 86.0521 9.59777 85.8323 9.20749C85.6282 8.8172 85.3299 8.51698 84.9375 8.30682C84.5607 8.08166 84.1211 7.96908 83.6188 7.96908C83.1164 7.96908 82.669 8.08166 82.2766 8.30682C81.8998 8.51698 81.5937 8.8172 81.3582 9.20749C81.1384 9.59777 81.0285 10.0481 81.0285 10.5585C81.0285 11.0538 81.1384 11.4967 81.3582 11.887C81.578 12.2772 81.8841 12.585 82.2766 12.8101C82.669 13.0353 83.1086 13.1479 83.5952 13.1479ZM86.0207 16.03V13.0803L86.5623 10.4234L86.0207 7.76643V5.08696H89.5528V16.03H86.0207Z"/>
  <path d="M58.2014 16.03V1.67347C58.2014 0.822859 58.9225 0.133301 59.8121 0.133301C60.4519 0.133301 61.0477 0.444571 61.3934 0.959381L67.385 9.88297H66.0428L72.0066 0.968624C72.3548 0.448178 72.9564 0.133301 73.6025 0.133301C74.4993 0.133301 75.2264 0.82849 75.2264 1.68605V16.03H71.5294V6.10019L72.1887 6.25781L67.9266 12.6075H65.4776L61.239 6.25781L61.8748 6.10019V16.03H58.2014Z" />
  <path d="M45.2792 16.03V5.08696H48.882V16.03H45.2792ZM48.882 10.0181L47.3749 8.89225C47.6732 7.61632 48.1755 6.62559 48.882 5.92007C49.5884 5.21455 50.5696 4.86179 51.8254 4.86179C52.3749 4.86179 52.8537 4.94435 53.2619 5.10947C53.6857 5.25958 54.0546 5.49976 54.3686 5.83L52.2258 8.41941C52.0688 8.25429 51.8725 8.12669 51.6371 8.03663C51.4016 7.94656 51.1347 7.90153 50.8364 7.90153C50.2399 7.90153 49.7611 8.08166 49.4 8.44193C49.0547 8.78718 48.882 9.31256 48.882 10.0181Z"/>
  <path d="M36.0554 16.2552C35.0036 16.2552 34.0616 16.0075 33.2296 15.5121C32.4133 15.0168 31.7618 14.3413 31.2752 13.4856C30.8042 12.63 30.5687 11.6543 30.5687 10.5585C30.5687 9.46268 30.8042 8.48696 31.2752 7.63133C31.7618 6.7757 32.4133 6.1002 33.2296 5.60484C34.0616 5.10947 35.0036 4.86179 36.0554 4.86179C36.8246 4.86179 37.5153 5.00439 38.1276 5.2896C38.7555 5.57481 39.2657 5.97261 39.6582 6.48298C40.0506 6.97835 40.2704 7.54877 40.3175 8.19424V12.9227C40.2704 13.5682 40.0506 14.1461 39.6582 14.6565C39.2814 15.1519 38.779 15.5421 38.1511 15.8274C37.5232 16.1126 36.8246 16.2552 36.0554 16.2552ZM36.7853 13.1479C37.5546 13.1479 38.1747 12.9077 38.6456 12.4274C39.1166 11.932 39.352 11.309 39.352 10.5585C39.352 10.0481 39.2422 9.59777 39.0224 9.20749C38.8183 8.8172 38.52 8.51698 38.1276 8.30682C37.7508 8.08166 37.3112 7.96908 36.8089 7.96908C36.3065 7.96908 35.8591 8.08166 35.4667 8.30682C35.0899 8.51698 34.7838 8.8172 34.5483 9.20749C34.3285 9.59777 34.2186 10.0481 34.2186 10.5585C34.2186 11.0538 34.3285 11.4967 34.5483 11.887C34.7681 12.2772 35.0742 12.585 35.4667 12.8101C35.8591 13.0353 36.2987 13.1479 36.7853 13.1479ZM39.2108 16.03V13.0803L39.7523 10.4234L39.2108 7.76643V5.08696H42.7429V16.03H39.2108Z" />
  <path d="M24.0259 16.2777C22.7857 16.2777 21.679 16.0375 20.7057 15.5571C19.7481 15.0618 18.9946 14.3788 18.4451 13.5081C17.8957 12.6375 17.6209 11.6543 17.6209 10.5585C17.6209 9.46266 17.8878 8.48694 18.4216 7.63131C18.971 6.76067 19.7088 6.07767 20.6351 5.5823C21.5613 5.08694 22.6052 4.83925 23.7669 4.83925C24.8972 4.83925 25.8941 5.07193 26.7575 5.53727C27.6209 6.00261 28.2959 6.64809 28.7826 7.47369C29.2849 8.2993 29.5361 9.245 29.5361 10.3108C29.5361 10.5059 29.5204 10.7161 29.489 10.9412C29.4733 11.1514 29.4341 11.3991 29.3713 11.6843L19.5048 11.7068V9.34257L27.8407 9.32005L26.2865 10.3108C26.2708 9.68032 26.1688 9.16243 25.9804 8.75714C25.792 8.33683 25.5094 8.0216 25.1327 7.81144C24.7716 7.58628 24.3242 7.47369 23.7905 7.47369C23.2253 7.47369 22.7308 7.60129 22.3069 7.85647C21.8988 8.09665 21.577 8.44191 21.3415 8.89224C21.1217 9.34257 21.0118 9.89047 21.0118 10.5359C21.0118 11.1814 21.1296 11.7368 21.365 12.2022C21.6162 12.6525 21.9616 13.0053 22.4011 13.2604C22.8564 13.5006 23.3901 13.6207 24.0024 13.6207C24.5675 13.6207 25.0777 13.5306 25.533 13.3505C25.9882 13.1554 26.3886 12.8702 26.7339 12.4949L28.7119 14.3863C28.1468 15.0167 27.4639 15.4896 26.6633 15.8048C25.8627 16.1201 24.9835 16.2777 24.0259 16.2777Z" />
  <path d="M4.65077 16.03V12.9227H7.56809C8.57279 12.9227 9.4519 12.7351 10.2054 12.3598C10.959 11.9695 11.5398 11.4066 11.948 10.6711C12.3561 9.93551 12.5602 9.06487 12.5602 8.05913C12.5602 7.05339 12.3483 6.19026 11.9244 5.46973C11.5163 4.7492 10.9354 4.19379 10.1819 3.8035C9.44406 3.41321 8.57279 3.21807 7.56809 3.21807H3.32949V0.133301H7.61518C8.87106 0.133301 10.0249 0.328444 11.0767 0.718732C12.1442 1.09401 13.0704 1.64191 13.8553 2.36244C14.656 3.06796 15.2682 3.90858 15.6921 4.8843C16.1316 5.845 16.3514 6.91079 16.3514 8.08165C16.3514 9.2375 16.1316 10.3033 15.6921 11.279C15.2682 12.2547 14.6638 13.0953 13.8789 13.8009C13.094 14.5064 12.1677 15.0543 11.1002 15.4446C10.0484 15.8348 8.90246 16.03 7.66228 16.03H4.65077ZM0.951172 12.9227V2.52348C0.951172 1.20342 2.0703 0.133301 3.45082 0.133301H4.64817V12.9227H0.951172Z"/>
  <path d="M4.63225 18.8218H10.187V24.1333H4.63225V18.8218Z" fill="#1E5AF2"/>
  <path d="M16.8527 18.8218H22.4075C22.4075 21.7553 19.9206 24.1333 16.8527 24.1333V18.8218Z" fill="#FFCC2D"/>
  <path d="M29.0732 24.1333C29.0732 21.1998 31.5602 18.8218 34.628 18.8218V24.1333H29.0732Z" fill="#FF1C52"/>
</svg>