<svg xmlns="http://www.w3.org/2000/svg" width="17" height="17" viewBox="0 0 17 17">
  <path d="M11.8333 4.5H5.16663C2.95996 4.5 1.16663 6.29333 1.16663 8.5C1.16663 10.7067 2.95996 12.5 5.16663 12.5H11.8333C14.04 12.5 15.8333 10.7067 15.8333 8.5C15.8333 6.29333 14.04 4.5 11.8333 4.5ZM11.8333 11.1667H5.16663C3.69329 11.1667 2.49996 9.97333 2.49996 8.5C2.49996 7.02667 3.69329 5.83333 5.16663 5.83333H11.8333C13.3066 5.83333 14.5 7.02667 14.5 8.5C14.5 9.97333 13.3066 11.1667 11.8333 11.1667ZM5.16663 6.5C4.05996 6.5 3.16663 7.39333 3.16663 8.5C3.16663 9.60667 4.05996 10.5 5.16663 10.5C6.27329 10.5 7.16663 9.60667 7.16663 8.5C7.16663 7.39333 6.27329 6.5 5.16663 6.5Z"/>
</svg>