<svg width="40" height="40" viewBox="0 0 40 40" fill="none" xmlns="http://www.w3.org/2000/svg">
                <path d="M0 8C0 3.58172 3.58172 0 8 0H32C36.4183 0 40 3.58172 40 8V32C40 36.4183 36.4183 40 32 40H8C3.58172 40 0 36.4183 0 32V8Z" fill="#2A2A32"/>
                <path fill-rule="evenodd" clip-rule="evenodd" d="M16.8 4H23.2V10.4H16.8V4ZM10.4 16.8V10.4H16.8V12.96C16.8 15.0808 15.0808 16.8 12.96 16.8H10.4ZM10.4 23.2H7.84C5.71923 23.2 4 21.4808 4 19.36V16.8H10.4V23.2ZM16.8 23.2H10.4V25.76C10.4 27.8808 12.1192 29.6 14.24 29.6H16.8V36H23.2V29.6H29.6V23.2H36V20.64C36 18.5192 34.2808 16.8 32.16 16.8H29.6V14.24C29.6 12.1192 27.8808 10.4 25.76 10.4H23.2V16.8H20.64C18.5192 16.8 16.8 18.5192 16.8 20.64V23.2ZM16.8 23.2H19.36C21.4808 23.2 23.2 21.4808 23.2 19.36V16.8H29.6V23.2H27.04C24.9192 23.2 23.2 24.9192 23.2 27.04V29.6H16.8V23.2Z" fill="white"/>
            </svg>
