<svg xmlns="http://www.w3.org/2000/svg" width="300" height="300" viewBox="0 0 300 300" fill="none">
  <path fill-rule="evenodd" clip-rule="evenodd" d="M120 0H180V60H120V0ZM60 120V60H120V84C120 103.882 103.882 120 84 120H60ZM60 180H36C16.1178 180 0 163.882 0 144V120H60V180ZM120 180H60V204C60 223.882 76.1178 240 96 240H120V300H180V240H240V180H300V156C300 136.118 283.882 120 264 120H240V96C240 76.1178 223.882 60 204 60H180V120H156C136.118 120 120 136.118 120 156V180ZM120 180H144C163.882 180 180 163.882 180 144V120H240V180H216C196.118 180 180 196.118 180 216V240H120V180Z" fill="#1E5AF2"/>
</svg>