<svg width="93" height="38" viewBox="0 0 93 38" fill="none" xmlns="http://www.w3.org/2000/svg">
<g clip-path="url(#clip0_69_1512)">
<path d="M92.6329 18.2725V26.1143H87.991V19.0013C87.991 17.0481 86.9921 16.1735 85.435 16.1735C84.6124 16.1735 83.731 16.6108 82.9084 17.4854V26.1143H78.2666V5.99951H82.9084V13.2875C84.0248 12.4712 85.2294 12.0048 86.6983 12.0048C90.2238 12.0048 92.6329 14.3661 92.6329 18.2725Z" fill="#1A1B1E"/>
<path d="M60.551 18.2725V26.1143H55.9092V19.0013C55.9092 17.0481 54.9103 16.1735 53.3532 16.1735C52.5306 16.1735 51.6492 16.6108 50.8266 17.4854V26.1143H46.1847V12.3838H50.8266V13.2875C51.943 12.4712 53.1475 12.0048 54.6165 12.0048C58.1713 12.0048 60.551 14.3661 60.551 18.2725Z" fill="#1A1B1E"/>
<path d="M43.6581 26.1143V12.3838H39.075V20.9836C38.2524 21.8582 37.371 22.3538 36.519 22.3538C34.9913 22.3538 33.9631 21.4209 33.9631 19.4677V12.3838H29.3212V20.1674C29.3212 24.0737 31.7009 26.4933 35.2264 26.4933C36.6953 26.4933 37.8998 25.9977 39.0163 25.1523V26.1143H43.6581Z" fill="#1A1B1E"/>
<path d="M76.7389 20.488H72.3614C72.1264 21.7416 71.0393 22.6161 69.6291 22.6161C67.6314 22.6161 66.4562 21.1002 66.4562 19.2345C66.4562 17.3688 67.6314 15.882 69.6291 15.882C71.01 15.882 72.097 16.7566 72.332 18.0101H76.7095C76.3569 14.4827 73.419 12.0048 69.5998 12.0048C65.2517 12.0048 62.02 15.0658 62.02 19.2345C62.02 23.4324 65.2517 26.4933 69.5998 26.4933C73.4484 26.4933 76.3863 24.0154 76.7389 20.488Z" fill="#1A1B1E"/>
<path d="M9.84293 21.8582H4.81913V6.84492H0.000976562V26.1143H12.6927C11.3119 25.1232 10.2542 23.6364 9.84293 21.8582Z" fill="#1A1B1E"/>
<path fill-rule="evenodd" clip-rule="evenodd" d="M26.9121 12.3838V26.1143H22.2996V25.3856C21.2714 26.056 20.0374 26.4933 18.5097 26.4933C14.7786 26.4933 11.635 23.3158 11.635 19.2345C11.635 15.1241 14.7786 12.0048 18.5097 12.0048C20.0374 12.0048 21.2714 12.4129 22.2996 13.0834V12.3838H26.9121ZM22.2996 21.3626V17.1064C21.4182 16.1444 20.4487 15.882 19.4499 15.882C17.5696 15.882 16.1594 17.3396 16.1594 19.2345C16.1594 21.1294 17.5696 22.587 19.4499 22.587C20.4194 22.587 21.3889 22.3246 22.2996 21.3626Z" fill="#1A1B1E"/>
<path fill-rule="evenodd" clip-rule="evenodd" d="M52.5785 30.8792H53.2294V32.8636C53.3524 32.7084 53.5029 32.5907 53.6808 32.5105C53.8605 32.4272 54.0693 32.3855 54.3073 32.3855C54.5452 32.3855 54.7564 32.4318 54.9407 32.5244C55.125 32.6146 55.279 32.7442 55.4026 32.9131C55.5286 33.082 55.6243 33.2845 55.6896 33.5205C55.7549 33.7542 55.7876 34.0146 55.7876 34.3015V34.3744C55.7876 34.6474 55.7549 34.9008 55.6896 35.1345C55.6243 35.3659 55.5286 35.5672 55.4026 35.7384C55.2767 35.9097 55.1227 36.0427 54.9407 36.1376C54.7587 36.2325 54.5499 36.2799 54.3143 36.2799C54.074 36.2799 53.8628 36.2394 53.6808 36.1584C53.5012 36.0751 53.3495 35.9559 53.2259 35.8009C53.2194 35.7928 53.2131 35.7847 53.2067 35.7764L53.1734 36.2105H52.5785V30.8792ZM53.2294 33.5104V35.1416C53.2381 35.1593 53.2471 35.1769 53.2565 35.1945C53.2625 35.2057 53.2686 35.217 53.2749 35.2282C53.3612 35.3763 53.4755 35.4978 53.6178 35.5927C53.7625 35.6875 53.941 35.735 54.1533 35.735C54.3283 35.735 54.4776 35.7003 54.6012 35.6308C54.7272 35.5591 54.8287 35.4608 54.9057 35.3358C54.985 35.2109 55.0434 35.0662 55.0807 34.9019C55.118 34.7377 55.1367 34.5618 55.1367 34.3744V34.3015C55.1367 34.114 55.1192 33.9382 55.0842 33.7739C55.0492 33.6073 54.9932 33.4615 54.9162 33.3366C54.8392 33.2093 54.7377 33.1098 54.6117 33.0381C54.4857 32.964 54.3306 32.927 54.1463 32.927C53.983 32.927 53.8406 32.9548 53.7193 33.0103C53.6003 33.0658 53.4989 33.141 53.4149 33.2359C53.3414 33.3168 53.2796 33.4083 53.2294 33.5104Z" fill="#1A1B1E"/>
<path d="M56.0047 32.455L57.3563 36.17L57.2156 36.5506C57.1643 36.7057 57.1024 36.8271 57.0301 36.9151C56.9601 37.0053 56.8738 37.069 56.7711 37.106C56.6685 37.1453 56.5437 37.165 56.3967 37.165C56.3865 37.165 56.3714 37.1641 56.3513 37.1623C56.3424 37.1615 56.3325 37.1605 56.3216 37.1594L56.3092 37.158C56.2695 37.1557 56.2404 37.1534 56.2217 37.1511L56.2252 37.6717C56.2579 37.681 56.3139 37.6926 56.3932 37.7064C56.4725 37.7203 56.5378 37.7273 56.5892 37.7273C56.7618 37.7273 56.91 37.696 57.0336 37.6336C57.1596 37.5734 57.2669 37.4947 57.3556 37.3975C57.4442 37.3003 57.5166 37.1974 57.5726 37.0886C57.6309 36.9822 57.6775 36.8827 57.7125 36.7901L59.2314 32.455H58.5384L57.6593 35.2647L56.7116 32.455H56.0047Z" fill="#1A1B1E"/>
<path d="M65.3245 36.2105V31.1568H64.6561V35.0651L62.0803 31.1568H61.4049V36.2105H62.0803V32.3127L64.6456 36.2105H65.3245Z" fill="#1A1B1E"/>
<path d="M68.1558 31.7052V36.2105H67.4909V31.7052H65.8566V31.1568H69.7936V31.7052H68.1558Z" fill="#1A1B1E"/>
<path d="M72.345 36.2105V31.7052H73.9828V31.1568H70.0458V31.7052H71.6801V36.2105H72.345Z" fill="#1A1B1E"/>
<path fill-rule="evenodd" clip-rule="evenodd" d="M77.4687 36.2105H76.0899V31.1568H77.5317C77.8654 31.1568 78.1698 31.2124 78.4451 31.3234C78.7204 31.4322 78.9572 31.5907 79.1555 31.799C79.3562 32.0049 79.5102 32.2548 79.6175 32.5487C79.7248 32.8402 79.7785 33.1688 79.7785 33.5344V33.8364C79.7785 34.202 79.7248 34.5317 79.6175 34.8256C79.5102 35.1171 79.355 35.3659 79.152 35.5718C78.9514 35.7778 78.7088 35.9363 78.4241 36.0473C78.1418 36.1561 77.8234 36.2105 77.4687 36.2105ZM77.4687 35.6655H76.7653V31.7052H77.5317C77.7837 31.7052 78.0065 31.7457 78.2002 31.8267C78.3961 31.9077 78.5618 32.0269 78.6971 32.1842C78.8324 32.3393 78.9351 32.5302 79.0051 32.7569C79.0751 32.9814 79.1101 33.2382 79.1101 33.5275V33.8364C79.1101 34.2043 79.0482 34.5259 78.9246 34.8013C78.8033 35.0743 78.6213 35.2872 78.3786 35.4399C78.136 35.5903 77.8327 35.6655 77.4687 35.6655Z" fill="#1A1B1E"/>
<path fill-rule="evenodd" clip-rule="evenodd" d="M82.6168 31.1568L84.5661 36.2105H83.8732L83.3879 34.8881H81.2568L80.7725 36.2105H80.0831L82.0254 31.1568H82.6168ZM81.4577 34.3397H83.1866L82.3212 31.9816L81.4577 34.3397Z" fill="#1A1B1E"/>
<path d="M86.533 31.7052V36.2105H85.8681V31.7052H84.2338V31.1568H88.1709V31.7052H86.533Z" fill="#1A1B1E"/>
<path fill-rule="evenodd" clip-rule="evenodd" d="M90.5472 31.1568L92.4965 36.2105H91.8036L91.3183 34.8881H89.1872L88.7029 36.2105H88.0135L89.9558 31.1568H90.5472ZM89.3881 34.3397H91.117L90.2517 31.9816L89.3881 34.3397Z" fill="#1A1B1E"/>
</g>
<defs>
<clipPath id="clip0_69_1512">
<rect width="92.6602" height="32" fill="white" transform="translate(0 6)"/>
</clipPath>
</defs>
</svg>
