<svg width="93" height="32" viewBox="0 0 93 32" xmlns="http://www.w3.org/2000/svg">
<path d="M92.6329 12.2724V20.1142H87.991V13.0012C87.991 11.048 86.9921 10.1734 85.435 10.1734C84.6124 10.1734 83.731 10.6107 82.9084 11.4853V20.1142H78.2666V-0.000610352H82.9084V7.28737C84.0248 6.47112 85.2294 6.00469 86.6983 6.00469C90.2238 6.00469 92.6329 8.366 92.6329 12.2724Z"/>
<path d="M60.551 12.2724V20.1142H55.9092V13.0012C55.9092 11.048 54.9103 10.1734 53.3532 10.1734C52.5306 10.1734 51.6492 10.6107 50.8266 11.4853V20.1142H46.1847V6.38366H50.8266V7.28737C51.943 6.47112 53.1475 6.00469 54.6165 6.00469C58.1713 6.00469 60.551 8.36599 60.551 12.2724Z"/>
<path d="M43.6581 20.1142V6.38367H39.075V14.9835C38.2524 15.858 37.371 16.3536 36.519 16.3536C34.9913 16.3536 33.9631 15.4208 33.9631 13.4676V6.38367H29.3212V14.1672C29.3212 18.0736 31.7009 20.4932 35.2264 20.4932C36.6953 20.4932 37.8998 19.9976 39.0163 19.1522V20.1142H43.6581Z" />
<path d="M76.7389 14.4879H72.3614C72.1264 15.7414 71.0393 16.616 69.6291 16.616C67.6314 16.616 66.4562 15.1001 66.4562 13.2344C66.4562 11.3686 67.6314 9.8819 69.6291 9.8819C71.01 9.8819 72.097 10.7565 72.332 12.01H76.7095C76.3569 8.4826 73.419 6.00469 69.5998 6.00469C65.2517 6.00469 62.02 9.06564 62.02 13.2344C62.02 17.4322 65.2517 20.4932 69.5998 20.4932C73.4484 20.4932 76.3863 18.0153 76.7389 14.4879Z" />
<path d="M9.84293 15.858H4.81913V0.844794H0.000976562V20.1142H12.6927C11.3119 19.1231 10.2542 17.6363 9.84293 15.858Z"/>
<path fill-rule="evenodd" clip-rule="evenodd" d="M26.9121 6.38366V20.1142H22.2996V19.3854C21.2714 20.0559 20.0374 20.4932 18.5097 20.4932C14.7786 20.4932 11.635 17.3156 11.635 13.2344C11.635 9.12395 14.7786 6.00469 18.5097 6.00469C20.0374 6.00469 21.2714 6.41281 22.2996 7.08331V6.38366H26.9121ZM22.2996 15.3625V11.1063C21.4182 10.1443 20.4487 9.8819 19.4499 9.8819C17.5696 9.8819 16.1594 11.3395 16.1594 13.2344C16.1594 15.1292 17.5696 16.5868 19.4499 16.5868C20.4194 16.5868 21.3889 16.3245 22.2996 15.3625Z" />
<path fill-rule="evenodd" clip-rule="evenodd" d="M52.5785 24.879H53.2294V26.8634C53.3524 26.7083 53.5029 26.5906 53.6808 26.5104C53.8605 26.4271 54.0693 26.3854 54.3073 26.3854C54.5452 26.3854 54.7564 26.4317 54.9407 26.5243C55.125 26.6145 55.279 26.7441 55.4026 26.913C55.5286 27.0819 55.6243 27.2844 55.6896 27.5204C55.7549 27.7541 55.7876 28.0144 55.7876 28.3014V28.3742C55.7876 28.6473 55.7549 28.9007 55.6896 29.1344C55.6243 29.3658 55.5286 29.5671 55.4026 29.7383C55.2767 29.9095 55.1227 30.0426 54.9407 30.1375C54.7587 30.2323 54.5499 30.2798 54.3143 30.2798C54.074 30.2798 53.8628 30.2393 53.6808 30.1583C53.5012 30.075 53.3495 29.9558 53.2259 29.8008C53.2194 29.7927 53.2131 29.7845 53.2067 29.7763L53.1734 30.2104H52.5785V24.879ZM53.2294 27.5103V29.1414C53.2381 29.1592 53.2471 29.1768 53.2565 29.1943C53.2625 29.2056 53.2686 29.2169 53.2749 29.2281C53.3612 29.3762 53.4755 29.4977 53.6178 29.5925C53.7625 29.6874 53.941 29.7348 54.1533 29.7348C54.3283 29.7348 54.4776 29.7001 54.6012 29.6307C54.7272 29.559 54.8287 29.4606 54.9057 29.3357C54.985 29.2107 55.0434 29.0661 55.0807 28.9018C55.118 28.7375 55.1367 28.5617 55.1367 28.3742V28.3014C55.1367 28.1139 55.1192 27.9381 55.0842 27.7738C55.0492 27.6072 54.9932 27.4614 54.9162 27.3364C54.8392 27.2092 54.7377 27.1097 54.6117 27.0379C54.4857 26.9639 54.3306 26.9269 54.1463 26.9269C53.983 26.9269 53.8406 26.9546 53.7193 27.0102C53.6003 27.0657 53.4989 27.1409 53.4149 27.2358C53.3414 27.3167 53.2796 27.4082 53.2294 27.5103Z" />
<path d="M56.0047 26.4548L57.3563 30.1699L57.2156 30.5505C57.1643 30.7055 57.1024 30.827 57.0301 30.915C56.9601 31.0052 56.8738 31.0688 56.7711 31.1059C56.6685 31.1452 56.5437 31.1649 56.3967 31.1649C56.3865 31.1649 56.3714 31.164 56.3513 31.1622C56.3424 31.1614 56.3325 31.1604 56.3216 31.1593L56.3092 31.1579C56.2695 31.1556 56.2404 31.1533 56.2217 31.151L56.2252 31.6716C56.2579 31.6809 56.3139 31.6924 56.3932 31.7063C56.4725 31.7202 56.5378 31.7271 56.5892 31.7271C56.7618 31.7271 56.91 31.6959 57.0336 31.6334C57.1596 31.5733 57.2669 31.4946 57.3556 31.3974C57.4442 31.3002 57.5166 31.1972 57.5726 31.0885C57.6309 30.9821 57.6775 30.8826 57.7125 30.79L59.2314 26.4548H58.5384L57.6593 29.2646L56.7116 26.4548H56.0047Z" />
<path d="M65.3245 30.2104V25.1567H64.6561V29.065L62.0803 25.1567H61.4049V30.2104H62.0803V26.3125L64.6456 30.2104H65.3245Z"/>
<path d="M68.1558 25.7051V30.2104H67.4909V25.7051H65.8566V25.1567H69.7936V25.7051H68.1558Z"/>
<path d="M72.345 30.2104V25.7051H73.9828V25.1567H70.0458V25.7051H71.6801V30.2104H72.345Z"/>
<path fill-rule="evenodd" clip-rule="evenodd" d="M77.4687 30.2104H76.0899V25.1567H77.5317C77.8654 25.1567 78.1698 25.2123 78.4451 25.3233C78.7204 25.4321 78.9572 25.5906 79.1555 25.7988C79.3562 26.0048 79.5102 26.2547 79.6175 26.5485C79.7248 26.8401 79.7785 27.1687 79.7785 27.5343V27.8363C79.7785 28.2019 79.7248 28.5316 79.6175 28.8255C79.5102 29.117 79.355 29.3658 79.152 29.5717C78.9514 29.7776 78.7088 29.9362 78.4241 30.0472C78.1418 30.156 77.8234 30.2104 77.4687 30.2104ZM77.4687 29.6654H76.7653V25.7051H77.5317C77.7837 25.7051 78.0065 25.7456 78.2002 25.8266C78.3961 25.9076 78.5618 26.0268 78.6971 26.1841C78.8324 26.3391 78.9351 26.53 79.0051 26.7568C79.0751 26.9813 79.1101 27.2381 79.1101 27.5273V27.8363C79.1101 28.2042 79.0482 28.5258 78.9246 28.8012C78.8033 29.0742 78.6213 29.2871 78.3786 29.4398C78.136 29.5902 77.8327 29.6654 77.4687 29.6654Z" />
<path fill-rule="evenodd" clip-rule="evenodd" d="M82.6168 25.1567L84.5661 30.2104H83.8732L83.3879 28.8879H81.2568L80.7725 30.2104H80.0831L82.0254 25.1567H82.6168ZM81.4577 28.3395H83.1866L82.3212 25.9815L81.4577 28.3395Z" />
<path d="M86.533 25.7051V30.2104H85.8681V25.7051H84.2338V25.1567H88.1709V25.7051H86.533Z"/>
<path fill-rule="evenodd" clip-rule="evenodd" d="M90.5472 25.1567L92.4965 30.2104H91.8036L91.3183 28.8879H89.1872L88.7029 30.2104H88.0135L89.9558 25.1567H90.5472ZM89.3881 28.3395H91.117L90.2517 25.9815L89.3881 28.3395Z" />
</svg>
